<svg width="40" height="40" viewBox="0 0 40 40" fill="none" xmlns="http://www.w3.org/2000/svg">
<rect width="40" height="40" rx="8" fill="#E9FFF8"/>
<path fill-rule="evenodd" clip-rule="evenodd" d="M24.7855 10H28.0521C29.4036 10 30.5 11.1059 30.5 12.4702V15.7641C30.5 17.1274 29.4036 18.2343 28.0521 18.2343H24.7855C23.433 18.2343 22.3366 17.1274 22.3366 15.7641V12.4702C22.3366 11.1059 23.433 10 24.7855 10Z" stroke="#67C4A7" stroke-width="1.5" stroke-linecap="round" stroke-linejoin="round"/>
<path fill-rule="evenodd" clip-rule="evenodd" d="M12.9489 10H16.2145C17.567 10 18.6634 11.1059 18.6634 12.4702V15.7641C18.6634 17.1274 17.567 18.2343 16.2145 18.2343H12.9489C11.5964 18.2343 10.5 17.1274 10.5 15.7641V12.4702C10.5 11.1059 11.5964 10 12.9489 10Z" stroke="#67C4A7" stroke-width="1.5" stroke-linecap="round" stroke-linejoin="round"/>
<path fill-rule="evenodd" clip-rule="evenodd" d="M12.9489 21.7657H16.2145C17.567 21.7657 18.6634 22.8716 18.6634 24.2369V27.5298C18.6634 28.8941 17.567 30 16.2145 30H12.9489C11.5964 30 10.5 28.8941 10.5 27.5298V24.2369C10.5 22.8716 11.5964 21.7657 12.9489 21.7657Z" stroke="#67C4A7" stroke-width="1.5" stroke-linecap="round" stroke-linejoin="round"/>
<path fill-rule="evenodd" clip-rule="evenodd" d="M24.7855 21.7657H28.0521C29.4036 21.7657 30.5 22.8716 30.5 24.2369V27.5298C30.5 28.8941 29.4036 30 28.0521 30H24.7855C23.433 30 22.3366 28.8941 22.3366 27.5298V24.2369C22.3366 22.8716 23.433 21.7657 24.7855 21.7657Z" stroke="#67C4A7" stroke-width="1.5" stroke-linecap="round" stroke-linejoin="round"/>
</svg>
