<svg width="28" height="28" viewBox="0 0 28 28" fill="none" xmlns="http://www.w3.org/2000/svg">
    <path fill-rule="evenodd" clip-rule="evenodd"
        d="M10.6834 24.2333V20.6554C10.6834 19.7454 11.4253 19.0059 12.3445 18.9998H15.7116C16.6352 18.9998 17.3839 19.7411 17.3839 20.6554V24.2444C17.3837 25.017 18.0066 25.6485 18.7869 25.6666H21.0316C23.2693 25.6666 25.0833 23.8708 25.0833 21.6554V11.4775C25.0714 10.6059 24.6581 9.78755 23.961 9.25518L16.284 3.13283C14.9391 2.06681 13.0272 2.06681 11.6823 3.13283L4.03903 9.2663C3.3393 9.79651 2.92529 10.6163 2.91667 11.4886V21.6554C2.91667 23.8708 4.73069 25.6666 6.9684 25.6666H9.21312C10.0127 25.6666 10.661 25.0249 10.661 24.2333"
        fill="#67C4A7" />
    <path
        d="M10.6834 24.2333V20.6554C10.6834 19.7454 11.4253 19.0059 12.3445 18.9998H15.7116C16.6352 18.9998 17.3839 19.7411 17.3839 20.6554V20.6554V24.2444C17.3837 25.017 18.0066 25.6485 18.7869 25.6666H21.0316C23.2693 25.6666 25.0833 23.8708 25.0833 21.6554V21.6554V11.4775C25.0714 10.6059 24.6581 9.78755 23.961 9.25518L16.284 3.13283C14.9391 2.06681 13.0272 2.06681 11.6823 3.13283L4.03903 9.2663C3.3393 9.79651 2.92529 10.6163 2.91667 11.4886V21.6554C2.91667 23.8708 4.73069 25.6666 6.9684 25.6666H9.21312C10.0127 25.6666 10.661 25.0249 10.661 24.2333V24.2333"
        stroke="#67C4A7" stroke-width="1.5" stroke-linecap="round" stroke-linejoin="round" />
</svg>
