<svg width="22" height="25" viewBox="0 0 22 25" fill="none" xmlns="http://www.w3.org/2000/svg">
<path fill-rule="evenodd" clip-rule="evenodd" d="M0.750963 14.5016V14.2462C0.788443 13.4903 1.0307 12.7579 1.45275 12.1245C2.15525 11.3637 2.63615 10.4314 2.845 9.42531C2.845 8.64775 2.845 7.85909 2.91291 7.08153C3.26381 3.33815 6.96516 0.75 10.6212 0.75H10.7118C14.3679 0.75 18.0692 3.33815 18.4314 7.08153C18.4993 7.85909 18.4314 8.64775 18.488 9.42531C18.6997 10.4337 19.1801 11.3689 19.8803 12.1356C20.3055 12.7634 20.5481 13.4931 20.5821 14.2462V14.4905C20.6073 15.5061 20.2576 16.4963 19.5973 17.2786C18.7248 18.1934 17.5408 18.7625 16.2695 18.8782C12.5415 19.2781 8.78021 19.2781 5.05223 18.8782C3.78233 18.7575 2.60005 18.1892 1.72441 17.2786C1.07433 16.4957 0.729281 15.5113 0.750963 14.5016Z" stroke="#393F42" stroke-width="1.5" stroke-linecap="round" stroke-linejoin="round"/>
<path d="M7.81409 22.7438C8.39657 23.4749 9.25196 23.9481 10.1909 24.0585C11.1299 24.169 12.075 23.9077 12.8171 23.3325C13.0454 23.1624 13.2508 22.9645 13.4284 22.7438" stroke="#393F42" stroke-width="1.5" stroke-linecap="round" stroke-linejoin="round"/>
</svg>
