<svg width="28" height="28" viewBox="0 0 28 28" fill="none" xmlns="http://www.w3.org/2000/svg">
<circle cx="13.5088" cy="8.49106" r="5.57437" stroke="#939393" stroke-width="1.5" stroke-linecap="round" stroke-linejoin="round"/>
<path fill-rule="evenodd" clip-rule="evenodd" d="M4.66668 21.8183C4.66518 21.4264 4.75282 21.0393 4.92297 20.6863C5.45691 19.6184 6.96263 19.0525 8.21206 18.7962C9.11315 18.6039 10.0267 18.4754 10.9459 18.4117C12.6476 18.2622 14.3592 18.2622 16.061 18.4117C16.9801 18.4762 17.8936 18.6046 18.7948 18.7962C20.0443 19.0525 21.55 19.5651 22.0839 20.6863C22.4261 21.4059 22.4261 22.2413 22.0839 22.9609C21.55 24.0822 20.0443 24.5948 18.7948 24.8404C17.8948 25.0407 16.9809 25.1728 16.061 25.2355C14.6759 25.353 13.2843 25.3744 11.8963 25.2996C11.5759 25.2996 11.2662 25.2996 10.9459 25.2355C10.0294 25.1735 9.11903 25.0414 8.22274 24.8404C6.96263 24.5948 5.46759 24.0822 4.92297 22.9609C4.75369 22.6038 4.66613 22.2135 4.66668 21.8183Z" stroke="#939393" stroke-width="1.5" stroke-linecap="round" stroke-linejoin="round"/>
</svg>
